# Made in Blockbench 4.6.1
mtllib fueltank.mtl

o cube
v 0.5 1 -0.5
v 0.5 1 -1.5
v 0.5 -1 -0.5
v 0.5 -1 -1.5
v -0.5 1 -0.5
v -0.5 1 -1.5
v -0.5 -1 -0.5
v -0.5 -1 -1.5
vt 0.5 1
vt 0 1
vt 0 0
vt 0.5 0
vt 0.5 0
vt 0.5 1
vt 0 1
vt 0 0
vt 0 0.5
vt 0.5 0.5
vt 0.5 1
vt 0 1
vt 0.5 0.5
vt 0.5 1
vt 0 1
vt 0 0.5
vt 0.5 0
vt 0.5 1
vt 0 1
vt 0 0
vt 0.5 1
vt 0 1
vt 0 0
vt 0.5 0
vn 1 0 0
vn -1 0 0
vn 0 1 0
vn 0 -1 0
vn 0 0 1
vn 0 0 -1
usemtl m_c26b27c1-afdc-07b7-7d66-333ec6ff34f0
f 2/1/1 1/2/1 3/3/1 4/4/1
f 7/5/2 5/6/2 6/7/2 8/8/2
f 5/9/3 1/10/3 2/11/3 6/12/3
f 4/13/4 3/14/4 7/15/4 8/16/4
f 3/17/5 1/18/5 5/19/5 7/20/5
f 6/21/6 2/22/6 4/23/6 8/24/6
o cube
v 0.5 1 0
v 0.5 1 -0.5
v 0.5 0 0.5
v 0.5 0 -0.5
v -0.5 1 0
v -0.5 1 -0.5
v -0.5 0 0.5
v -0.5 0 -0.5
v -0.5 0.5 0.5
v -0.5 0.5 -0.5
v 0.5 0.5 -0.5
v 0.5 0.5 0.5
vt 0.75 0.25
vt 0.5 0
vt 1 0
vt 1 0.25
vt 0.5 0.125
vt 1 0.125
vt 1 0.375
vt 0.5 0.375
vt 0.5 0.46875
vt 0.5 0.125
vt 1 0.125
vt 1 0.46875
vt 0.5 0.5
vt 0.5 0.25
vt 1 0.25
vt 1 0.5
vt 0.5 0.25
vt 0.5 0
vt 1 0
vt 0.75 0.25
vt 1 0
vt 1 0.25
vt 0.5 0.25
vt 0.5 0
vt 1 0
vt 1 0.25
vt 0.5 0.25
vt 0.5 0
vt 1 0
vt 1 0.25
vt 0.5 0.25
vt 0.5 0
vt 1 0
vt 1 0.25
vt 0.5 0.25
vt 0.5 0
vn 1 0 0
vn 0 1 0
vn 0 0.7071067811865476 0.7071067811865476
vn 0 0 -1
vn -1 0 0
vn -1 0 0
vn 0 0 -1
vn 1 0 0
vn 0 0 1
usemtl m_c26b27c1-afdc-07b7-7d66-333ec6ff34f0
f 9/25/7 20/26/7 19/27/7 10/28/7
f 13/29/8 9/30/8 10/31/8 14/32/8
f 13/33/9 17/34/9 20/35/9 9/36/9
f 10/37/10 19/38/10 18/39/10 14/40/10
f 14/41/11 18/42/11 17/43/11 13/44/11
f 15/45/12 17/46/12 18/47/12 16/48/12
f 16/49/13 18/50/13 19/51/13 12/52/13
f 12/53/14 19/54/14 20/55/14 11/56/14
f 11/57/15 20/58/15 17/59/15 15/60/15
o fuel_translucent
v 0.4990234375 0.9990234375 -0.5009765625
v 0.4990234375 0.9990234375 -1.4990234375
v 0.4990234375 -1 -0.5009765625
v 0.4990234375 -1 -1.4990234375
v -0.4990234375 0.9990234375 -0.5009765625
v -0.4990234375 0.9990234375 -1.4990234375
v -0.4990234375 -1 -0.5009765625
v -0.4990234375 -1 -1.4990234375
v 0.4990234375 -0.00048749999999997407 -0.5009765625
v 0.4990234375 -0.00048749999999997407 -1.4990234375
v -0.4990234375 -0.00048749999999997407 -1.4990234375
v -0.4990234375 -0.00048749999999997407 -0.5009765625
vt 1 0.49999960918417197
vt 1 1
vt 0.5 1
vt 0.5 0.49999960918417197
vt 1 0.49999960918417197
vt 1 1
vt 0.5 1
vt 0.5 0.49999960918417197
vt 0.5 0.5
vt 1 0.5
vt 1 1
vt 0.5 1
vt 1 0.5
vt 1 1
vt 0.5 1
vt 0.5 0.5
vt 1 0.49999960918417197
vt 1 1
vt 0.5 1
vt 0.5 0.49999960918417197
vt 1 0.49999960918417197
vt 1 1
vt 0.5 1
vt 0.5 0.49999960918417197
vt 0.5 1
vt 0.5 0.500000390815828
vt 1 0.500000390815828
vt 1 1
vt 0.5 1
vt 0.5 0.500000390815828
vt 1 0.500000390815828
vt 1 1
vt 0.5 1
vt 0.5 0.500000390815828
vt 1 0.500000390815828
vt 1 1
vt 0.5 1
vt 0.5 0.500000390815828
vt 1 0.500000390815828
vt 1 1
vn 1 0 0
vn -1 0 0
vn 0 1 0
vn 0 -1 0
vn 0 0 1
vn 0 0 -1
vn 1 0 0
vn 0 0 -1
vn -1 0 0
vn 0 0 1
usemtl m_c26b27c1-afdc-07b7-7d66-333ec6ff34f0
f 24/61/16 30/62/16 29/63/16 23/64/16
f 27/65/17 32/66/17 31/67/17 28/68/17
f 25/69/18 21/70/18 22/71/18 26/72/18
f 24/73/19 23/74/19 27/75/19 28/76/19
f 23/77/20 29/78/20 32/79/20 27/80/20
f 28/81/21 31/82/21 30/83/21 24/84/21
f 21/85/22 29/86/22 30/87/22 22/88/22
f 22/89/23 30/90/23 31/91/23 26/92/23
f 26/93/24 31/94/24 32/95/24 25/96/24
f 25/97/25 32/98/25 29/99/25 21/100/25