# Made in Blockbench 4.6.1
mtllib cabplatform.mtl

o cube
v 0.5 0 0.5
v 0.5 0 -0.5
v 0.5 -0.5 0.5
v 0.5 -0.5 -0.5
v -0.5 0 0.5
v -0.5 0 -0.5
v -0.5 -0.5 0.5
v -0.5 -0.5 -0.5
vt 0 0.5
vt 0.5 0.5
vt 0.5 1
vt 0 1
vt 0.5 0
vt 0.5 0.5
vt 0 0.5
vt 0 0
vn 0 1 0
vn 0 -1 0
usemtl m_280030af-95ec-bedc-5ba5-90795120bbea
f 5/1/1 1/2/1 2/3/1 6/4/1
f 4/5/2 3/6/2 7/7/2 8/8/2
o cube
v 0.5 0 -1.5
v 0.5 0 -2.5
v 0.5 -0.5 -1.5
v 0.5 -0.5 -2.5
v -0.5 0 -1.5
v -0.5 0 -2.5
v -0.5 -0.5 -1.5
v -0.5 -0.5 -2.5
vt 0 0.5
vt 0.5 0.5
vt 0.5 1
vt 0 1
vt 0.5 0
vt 0.5 0.5
vt 0 0.5
vt 0 0
vt 1 1
vt 0.5 1
vt 0.5 0.75
vt 1 0.75
vn 0 1 0
vn 0 -1 0
vn 0 0 -1
usemtl m_280030af-95ec-bedc-5ba5-90795120bbea
f 13/9/3 9/10/3 10/11/3 14/12/3
f 12/13/4 11/14/4 15/15/4 16/16/4
f 14/17/5 10/18/5 12/19/5 16/20/5
o cube
v 0.5 0 2.5
v 0.5 0 1.5
v 0.5 -0.5 2.5
v 0.5 -0.5 1.5
v -0.5 0 2.5
v -0.5 0 1.5
v -0.5 -0.5 2.5
v -0.5 -0.5 1.5
vt 0 0.5
vt 0.5 0.5
vt 0.5 1
vt 0 1
vt 0.5 0
vt 0.5 0.5
vt 0 0.5
vt 0 0
vt 1 0.75
vt 1 1
vt 0.5 1
vt 0.5 0.75
vn 0 1 0
vn 0 -1 0
vn 0 0 1
usemtl m_280030af-95ec-bedc-5ba5-90795120bbea
f 21/21/6 17/22/6 18/23/6 22/24/6
f 20/25/7 19/26/7 23/27/7 24/28/7
f 19/29/8 17/30/8 21/31/8 23/32/8
o cube
v 0.5 0 1.5
v 0.5 0 0.5
v 0.5 -0.5 1.5
v 0.5 -0.5 0.5
v -0.5 0 1.5
v -0.5 0 0.5
v -0.5 -0.5 1.5
v -0.5 -0.5 0.5
vt 0 0.5
vt 0.5 0.5
vt 0.5 1
vt 0 1
vt 0.5 0
vt 0.5 0.5
vt 0 0.5
vt 0 0
vn 0 1 0
vn 0 -1 0
usemtl m_280030af-95ec-bedc-5ba5-90795120bbea
f 29/33/9 25/34/9 26/35/9 30/36/9
f 28/37/10 27/38/10 31/39/10 32/40/10
o cube
v -0.5 0 -1.5
v -0.5 0 -2.5
v -0.5 -0.5 -1.5
v -0.5 -0.5 -2.5
v -1.5 0 -1.5
v -1.5 0 -2.5
v -1.5 -0.5 -1.5
v -1.5 -0.5 -2.5
vt 0 0.5
vt 0.5 0.5
vt 0.5 1
vt 0 1
vt 0.5 0
vt 0.5 0.5
vt 0 0.5
vt 0 0
vt 1 1
vt 0.5 1
vt 0.5 0.75
vt 1 0.75
vn 0 1 0
vn 0 -1 0
vn 0 0 -1
usemtl m_280030af-95ec-bedc-5ba5-90795120bbea
f 37/41/11 33/42/11 34/43/11 38/44/11
f 36/45/12 35/46/12 39/47/12 40/48/12
f 38/49/13 34/50/13 36/51/13 40/52/13
o cube
v -0.5 0 0.5
v -0.5 0 -0.5
v -0.5 -0.5 0.5
v -0.5 -0.5 -0.5
v -1.5 0 0.5
v -1.5 0 -0.5
v -1.5 -0.5 0.5
v -1.5 -0.5 -0.5
vt 0 0.5
vt 0.5 0.5
vt 0.5 1
vt 0 1
vt 0.5 0
vt 0.5 0.5
vt 0 0.5
vt 0 0
vn 0 1 0
vn 0 -1 0
usemtl m_280030af-95ec-bedc-5ba5-90795120bbea
f 45/53/14 41/54/14 42/55/14 46/56/14
f 44/57/15 43/58/15 47/59/15 48/60/15
o cube
v -0.5 0 1.5
v -0.5 0 0.5
v -0.5 -0.5 1.5
v -0.5 -0.5 0.5
v -1.5 0 1.5
v -1.5 0 0.5
v -1.5 -0.5 1.5
v -1.5 -0.5 0.5
vt 0 0.5
vt 0.5 0.5
vt 0.5 1
vt 0 1
vt 0.5 0
vt 0.5 0.5
vt 0 0.5
vt 0 0
vn 0 1 0
vn 0 -1 0
usemtl m_280030af-95ec-bedc-5ba5-90795120bbea
f 53/61/16 49/62/16 50/63/16 54/64/16
f 52/65/17 51/66/17 55/67/17 56/68/17
o cube
v -0.5 0 2.5
v -0.5 0 1.5
v -0.5 -0.5 2.5
v -0.5 -0.5 1.5
v -1.5 0 2.5
v -1.5 0 1.5
v -1.5 -0.5 2.5
v -1.5 -0.5 1.5
vt 0 0.5
vt 0.5 0.5
vt 0.5 1
vt 0 1
vt 0.5 0
vt 0.5 0.5
vt 0 0.5
vt 0 0
vt 1 0.75
vt 1 1
vt 0.5 1
vt 0.5 0.75
vn 0 1 0
vn 0 -1 0
vn 0 0 1
usemtl m_280030af-95ec-bedc-5ba5-90795120bbea
f 61/69/18 57/70/18 58/71/18 62/72/18
f 60/73/19 59/74/19 63/75/19 64/76/19
f 59/77/20 57/78/20 61/79/20 63/80/20
o cube
v -1.5 0 2.5
v -1.5 0 1.5
v -1.5 -0.5 2.5
v -1.5 -0.5 1.5
v -2.5 0 2.5
v -2.5 0 1.5
v -2.5 -0.5 2.5
v -2.5 -0.5 1.5
vt 1 0.75
vt 1 1
vt 0.5 1
vt 0.5 0.75
vt 0 0.5
vt 0.5 0.5
vt 0.5 1
vt 0 1
vt 0.5 0
vt 0.5 0.5
vt 0 0.5
vt 0 0
vt 1 0.75
vt 1 1
vt 0.5 1
vt 0.5 0.75
vn -1 0 0
vn 0 1 0
vn 0 -1 0
vn 0 0 1
usemtl m_280030af-95ec-bedc-5ba5-90795120bbea
f 71/81/21 69/82/21 70/83/21 72/84/21
f 69/85/22 65/86/22 66/87/22 70/88/22
f 68/89/23 67/90/23 71/91/23 72/92/23
f 67/93/24 65/94/24 69/95/24 71/96/24
o cube
v -1.5 0 0.5
v -1.5 0 -0.5
v -1.5 -0.5 0.5
v -1.5 -0.5 -0.5
v -2.5 0 0.5
v -2.5 0 -0.5
v -2.5 -0.5 0.5
v -2.5 -0.5 -0.5
vt 1 0.75
vt 1 1
vt 0.5 1
vt 0.5 0.75
vt 0 0.5
vt 0.5 0.5
vt 0.5 1
vt 0 1
vt 0.5 0
vt 0.5 0.5
vt 0 0.5
vt 0 0
vn -1 0 0
vn 0 1 0
vn 0 -1 0
usemtl m_280030af-95ec-bedc-5ba5-90795120bbea
f 79/97/25 77/98/25 78/99/25 80/100/25
f 77/101/26 73/102/26 74/103/26 78/104/26
f 76/105/27 75/106/27 79/107/27 80/108/27
o cube
v -1.5 0 1.5
v -1.5 0 0.5
v -1.5 -0.5 1.5
v -1.5 -0.5 0.5
v -2.5 0 1.5
v -2.5 0 0.5
v -2.5 -0.5 1.5
v -2.5 -0.5 0.5
vt 1 0.75
vt 1 1
vt 0.5 1
vt 0.5 0.75
vt 0 0.5
vt 0.5 0.5
vt 0.5 1
vt 0 1
vt 0.5 0
vt 0.5 0.5
vt 0 0.5
vt 0 0
vn -1 0 0
vn 0 1 0
vn 0 -1 0
usemtl m_280030af-95ec-bedc-5ba5-90795120bbea
f 87/109/28 85/110/28 86/111/28 88/112/28
f 85/113/29 81/114/29 82/115/29 86/116/29
f 84/117/30 83/118/30 87/119/30 88/120/30
o cube
v -1.5 0 -1.5
v -1.5 0 -2.5
v -1.5 -0.5 -1.5
v -1.5 -0.5 -2.5
v -2.5 0 -1.5
v -2.5 0 -2.5
v -2.5 -0.5 -1.5
v -2.5 -0.5 -2.5
vt 1 0.75
vt 1 1
vt 0.5 1
vt 0.5 0.75
vt 0 0.5
vt 0.5 0.5
vt 0.5 1
vt 0 1
vt 0.5 0
vt 0.5 0.5
vt 0 0.5
vt 0 0
vt 1 1
vt 0.5 1
vt 0.5 0.75
vt 1 0.75
vn -1 0 0
vn 0 1 0
vn 0 -1 0
vn 0 0 -1
usemtl m_280030af-95ec-bedc-5ba5-90795120bbea
f 95/121/31 93/122/31 94/123/31 96/124/31
f 93/125/32 89/126/32 90/127/32 94/128/32
f 92/129/33 91/130/33 95/131/33 96/132/33
f 94/133/34 90/134/34 92/135/34 96/136/34
o cube
v -1.5 0 -0.5
v -1.5 0 -1.5
v -1.5 -0.5 -0.5
v -1.5 -0.5 -1.5
v -2.5 0 -0.5
v -2.5 0 -1.5
v -2.5 -0.5 -0.5
v -2.5 -0.5 -1.5
vt 1 0.75
vt 1 1
vt 0.5 1
vt 0.5 0.75
vt 0 0.5
vt 0.5 0.5
vt 0.5 1
vt 0 1
vt 0.5 0
vt 0.5 0.5
vt 0 0.5
vt 0 0
vn -1 0 0
vn 0 1 0
vn 0 -1 0
usemtl m_280030af-95ec-bedc-5ba5-90795120bbea
f 103/137/35 101/138/35 102/139/35 104/140/35
f 101/141/36 97/142/36 98/143/36 102/144/36
f 100/145/37 99/146/37 103/147/37 104/148/37
o cube
v 2.5 0 -1.5
v 2.5 0 -2.5
v 2.5 -0.5 -1.5
v 2.5 -0.5 -2.5
v 1.5 0 -1.5
v 1.5 0 -2.5
v 1.5 -0.5 -1.5
v 1.5 -0.5 -2.5
vt 1 1
vt 0.5 1
vt 0.5 0.75
vt 1 0.75
vt 0 0.5
vt 0.5 0.5
vt 0.5 1
vt 0 1
vt 0.5 0
vt 0.5 0.5
vt 0 0.5
vt 0 0
vt 1 1
vt 0.5 1
vt 0.5 0.75
vt 1 0.75
vn 1 0 0
vn 0 1 0
vn 0 -1 0
vn 0 0 -1
usemtl m_280030af-95ec-bedc-5ba5-90795120bbea
f 106/149/38 105/150/38 107/151/38 108/152/38
f 109/153/39 105/154/39 106/155/39 110/156/39
f 108/157/40 107/158/40 111/159/40 112/160/40
f 110/161/41 106/162/41 108/163/41 112/164/41
o cube
v 2.5 0 -0.5
v 2.5 0 -1.5
v 2.5 -0.5 -0.5
v 2.5 -0.5 -1.5
v 1.5 0 -0.5
v 1.5 0 -1.5
v 1.5 -0.5 -0.5
v 1.5 -0.5 -1.5
vt 1 1
vt 0.5 1
vt 0.5 0.75
vt 1 0.75
vt 0 0.5
vt 0.5 0.5
vt 0.5 1
vt 0 1
vt 0.5 0
vt 0.5 0.5
vt 0 0.5
vt 0 0
vn 1 0 0
vn 0 1 0
vn 0 -1 0
usemtl m_280030af-95ec-bedc-5ba5-90795120bbea
f 114/165/42 113/166/42 115/167/42 116/168/42
f 117/169/43 113/170/43 114/171/43 118/172/43
f 116/173/44 115/174/44 119/175/44 120/176/44
o cube
v 2.5 0 0.5
v 2.5 0 -0.5
v 2.5 -0.5 0.5
v 2.5 -0.5 -0.5
v 1.5 0 0.5
v 1.5 0 -0.5
v 1.5 -0.5 0.5
v 1.5 -0.5 -0.5
vt 1 1
vt 0.5 1
vt 0.5 0.75
vt 1 0.75
vt 0 0.5
vt 0.5 0.5
vt 0.5 1
vt 0 1
vt 0.5 0
vt 0.5 0.5
vt 0 0.5
vt 0 0
vn 1 0 0
vn 0 1 0
vn 0 -1 0
usemtl m_280030af-95ec-bedc-5ba5-90795120bbea
f 122/177/45 121/178/45 123/179/45 124/180/45
f 125/181/46 121/182/46 122/183/46 126/184/46
f 124/185/47 123/186/47 127/187/47 128/188/47
o cube
v 2.5 0 1.5
v 2.5 0 0.5
v 2.5 -0.5 1.5
v 2.5 -0.5 0.5
v 1.5 0 1.5
v 1.5 0 0.5
v 1.5 -0.5 1.5
v 1.5 -0.5 0.5
vt 1 1
vt 0.5 1
vt 0.5 0.75
vt 1 0.75
vt 0 0.5
vt 0.5 0.5
vt 0.5 1
vt 0 1
vt 0.5 0
vt 0.5 0.5
vt 0 0.5
vt 0 0
vt 1 0.75
vt 1 1
vt 0.5 1
vt 0.5 0.75
vn 1 0 0
vn 0 1 0
vn 0 -1 0
vn 0 0 1
usemtl m_280030af-95ec-bedc-5ba5-90795120bbea
f 130/189/48 129/190/48 131/191/48 132/192/48
f 133/193/49 129/194/49 130/195/49 134/196/49
f 132/197/50 131/198/50 135/199/50 136/200/50
f 131/201/51 129/202/51 133/203/51 135/204/51
o cube
v 2.5 0 2.5
v 2.5 0 1.5
v 2.5 -0.5 2.5
v 2.5 -0.5 1.5
v 1.5 0 2.5
v 1.5 0 1.5
v 1.5 -0.5 2.5
v 1.5 -0.5 1.5
vt 1 1
vt 0.5 1
vt 0.5 0.75
vt 1 0.75
vt 0 0.5
vt 0.5 0.5
vt 0.5 1
vt 0 1
vt 0.5 0
vt 0.5 0.5
vt 0 0.5
vt 0 0
vt 1 0.75
vt 1 1
vt 0.5 1
vt 0.5 0.75
vn 1 0 0
vn 0 1 0
vn 0 -1 0
vn 0 0 1
usemtl m_280030af-95ec-bedc-5ba5-90795120bbea
f 138/205/52 137/206/52 139/207/52 140/208/52
f 141/209/53 137/210/53 138/211/53 142/212/53
f 140/213/54 139/214/54 143/215/54 144/216/54
f 139/217/55 137/218/55 141/219/55 143/220/55
o cube
v 1.5 0 -1.5
v 1.5 0 -2.5
v 1.5 -0.5 -1.5
v 1.5 -0.5 -2.5
v 0.5 0 -1.5
v 0.5 0 -2.5
v 0.5 -0.5 -1.5
v 0.5 -0.5 -2.5
vt 0 0.5
vt 0.5 0.5
vt 0.5 1
vt 0 1
vt 0.5 0
vt 0.5 0.5
vt 0 0.5
vt 0 0
vt 1 1
vt 0.5 1
vt 0.5 0.75
vt 1 0.75
vn 0 1 0
vn 0 -1 0
vn 0 0 -1
usemtl m_280030af-95ec-bedc-5ba5-90795120bbea
f 149/221/56 145/222/56 146/223/56 150/224/56
f 148/225/57 147/226/57 151/227/57 152/228/57
f 150/229/58 146/230/58 148/231/58 152/232/58
o cube
v 1.5 0 1.5
v 1.5 0 0.5
v 1.5 -0.5 1.5
v 1.5 -0.5 0.5
v 0.5 0 1.5
v 0.5 0 0.5
v 0.5 -0.5 1.5
v 0.5 -0.5 0.5
vt 0 0.5
vt 0.5 0.5
vt 0.5 1
vt 0 1
vt 0.5 0
vt 0.5 0.5
vt 0 0.5
vt 0 0
vn 0 1 0
vn 0 -1 0
usemtl m_280030af-95ec-bedc-5ba5-90795120bbea
f 157/233/59 153/234/59 154/235/59 158/236/59
f 156/237/60 155/238/60 159/239/60 160/240/60
o cube
v 1.5 0 0.5
v 1.5 0 -0.5
v 1.5 -0.5 0.5
v 1.5 -0.5 -0.5
v 0.5 0 0.5
v 0.5 0 -0.5
v 0.5 -0.5 0.5
v 0.5 -0.5 -0.5
vt 0 0.5
vt 0.5 0.5
vt 0.5 1
vt 0 1
vt 0.5 0
vt 0.5 0.5
vt 0 0.5
vt 0 0
vn 0 1 0
vn 0 -1 0
usemtl m_280030af-95ec-bedc-5ba5-90795120bbea
f 165/241/61 161/242/61 162/243/61 166/244/61
f 164/245/62 163/246/62 167/247/62 168/248/62
o cube
v 1.5 0 2.5
v 1.5 0 1.5
v 1.5 -0.5 2.5
v 1.5 -0.5 1.5
v 0.5 0 2.5
v 0.5 0 1.5
v 0.5 -0.5 2.5
v 0.5 -0.5 1.5
vt 0 0.5
vt 0.5 0.5
vt 0.5 1
vt 0 1
vt 0.5 0
vt 0.5 0.5
vt 0 0.5
vt 0 0
vt 1 0.75
vt 1 1
vt 0.5 1
vt 0.5 0.75
vn 0 1 0
vn 0 -1 0
vn 0 0 1
usemtl m_280030af-95ec-bedc-5ba5-90795120bbea
f 173/249/63 169/250/63 170/251/63 174/252/63
f 172/253/64 171/254/64 175/255/64 176/256/64
f 171/257/65 169/258/65 173/259/65 175/260/65
o cube
v 0.5 0 -0.5
v 0.5 0 -1.5
v 0.5 -0.5 -0.5
v 0.5 -0.5 -1.5
v -0.5 0 -0.5
v -0.5 0 -1.5
v -0.5 -0.5 -0.5
v -0.5 -0.5 -1.5
vt 0 0.5
vt 0.5 0.5
vt 0.5 1
vt 0 1
vt 0.5 0
vt 0.5 0.5
vt 0 0.5
vt 0 0
vn 0 1 0
vn 0 -1 0
usemtl m_280030af-95ec-bedc-5ba5-90795120bbea
f 181/261/66 177/262/66 178/263/66 182/264/66
f 180/265/67 179/266/67 183/267/67 184/268/67
o cube
v -0.5 0 -0.5
v -0.5 0 -1.5
v -0.5 -0.5 -0.5
v -0.5 -0.5 -1.5
v -1.5 0 -0.5
v -1.5 0 -1.5
v -1.5 -0.5 -0.5
v -1.5 -0.5 -1.5
vt 0 0.5
vt 0.5 0.5
vt 0.5 1
vt 0 1
vt 0.5 0
vt 0.5 0.5
vt 0 0.5
vt 0 0
vn 0 1 0
vn 0 -1 0
usemtl m_280030af-95ec-bedc-5ba5-90795120bbea
f 189/269/68 185/270/68 186/271/68 190/272/68
f 188/273/69 187/274/69 191/275/69 192/276/69
o cube
v 1.5 0 -0.5
v 1.5 0 -1.5
v 1.5 -0.5 -0.5
v 1.5 -0.5 -1.5
v 0.5 0 -0.5
v 0.5 0 -1.5
v 0.5 -0.5 -0.5
v 0.5 -0.5 -1.5
vt 0 0.5
vt 0.5 0.5
vt 0.5 1
vt 0 1
vt 0.5 0
vt 0.5 0.5
vt 0 0.5
vt 0 0
vn 0 1 0
vn 0 -1 0
usemtl m_280030af-95ec-bedc-5ba5-90795120bbea
f 197/277/70 193/278/70 194/279/70 198/280/70
f 196/281/71 195/282/71 199/283/71 200/284/71